<svg fill="none" height="24" viewBox="0 0 24 24" width="24" xmlns="http://www.w3.org/2000/svg"><path d="m17.92 11.6199c-.0476-.1227-.119-.2349-.21-.33l-5-4.99996c-.0932-.09324-.2039-.1672-.3258-.21766-.1218-.05046-.2523-.07643-.3842-.07643-.2663 0-.5217.10579-.71.29409-.0932.09324-.1672.20393-.2177.32575-.0504.12182-.0764.25239-.0764.38425 0 .2663.1058.5217.2941.71l3.3 3.28996h-7.59c-.26522 0-.51957.1054-.70711.2929-.18753.1876-.29289.4419-.29289.7071 0 .2653.10536.5196.29289.7071.18754.1876.44189.2929.70711.2929h7.59l-3.3 3.29c-.0937.093-.1681.2036-.2189.3255-.0508.1218-.0769.2525-.0769.3845 0 .1321.0261.2628.0769.3846.0508.1219.1252.2325.2189.3254.093.0938.2036.1682.3254.2189.1219.0508.2526.0769.3846.0769s.2627-.0261.3846-.0769c.1218-.0507.2324-.1251.3254-.2189l5-5c.091-.0951.1624-.2072.21-.33.1-.2434.1-.5165 0-.76z" fill="#051c2a"/></svg>