<svg fill="none" height="24" viewBox="0 0 24 24" width="24" xmlns="http://www.w3.org/2000/svg"><path d="m18.71 7.20986c-.093-.09373-.2036-.16812-.3254-.21889-.1219-.05077-.2526-.07691-.3846-.07691s-.2627.02614-.3846.07691c-.1218.05077-.2324.12516-.3254.21889l-7.45 7.46004-3.13-3.14c-.09653-.0933-.21047-.1666-.33532-.2158-.12486-.0492-.25818-.0733-.39236-.071s-.26659.031-.38967.0845-.23442.1307-.32765.2273c-.09324.0965-.16656.2104-.21576.3353-.0492.1248-.07334.2582-.07101.3923.00232.1342.03105.2666.08454.3897s.1307.2344.22723.3277l3.84 3.84c.09296.0937.20356.1681.32542.2189.12186.0507.25256.0769.38458.0769.13201 0 .2627-.0262.3846-.0769.1218-.0508.2324-.1252.3254-.2189l8.16-8.16004c.1015-.09364.1825-.20729.2379-.33379s.084-.26311.084-.40121-.0286-.27471-.084-.40121-.1364-.24015-.2379-.33379z" fill="#fff"/></svg>