<svg fill="none" height="32" viewBox="0 0 32 32" width="32" xmlns="http://www.w3.org/2000/svg"><path d="m25.3334 2.6665h-18.66671c-1.06087 0-2.07828.42143-2.82843 1.17158-.75015.75014-1.17157 1.76756-1.17157 2.82842v1.56c-.00019.55059.11329 1.0953.33333 1.6v.08c.18837.428.45519.8169.78667 1.1467l8.21331 8.16v8.7866c-.0004.2266.0569.4496.1665.6479.1097.1983.268.3654.4602.4855.2122.1315.457.2008.7067.2.2087-.0013.4142-.0515.6-.1467l5.3333-2.6667c.2199-.1108.4048-.2803.5342-.4897.1295-.2095.1984-.4507.1991-.6969v-6.12l8.16-8.16c.3315-.3298.5983-.7187.7867-1.1467v-.08c.2384-.50076.3701-1.04562.3867-1.6v-1.56c0-1.06086-.4215-2.07828-1.1716-2.82842-.7502-.75015-1.7676-1.17158-2.8284-1.17158zm-7.6134 15.0533c-.1236.1246-.2213.2724-.2877.4348-.0663.1625-.1.3364-.0989.5119v5.84l-2.6667 1.3333v-7.1733c.001-.1755-.0326-.3494-.099-.5119-.0663-.1624-.1641-.3102-.2877-.4348l-7.06665-7.0533h17.57335zm8.9467-9.71996h-21.33335v-1.33334c0-.35362.14048-.69276.39053-.9428.25005-.25005.58919-.39053.94281-.39053h18.66671c.3536 0 .6927.14048.9428.39053.25.25004.3905.58918.3905.9428z" fill="#051c2a"/></svg>