<svg fill="none" height="32" viewBox="0 0 32 32" width="32" xmlns="http://www.w3.org/2000/svg"><path d="m27.8918 14.204c-.4192-.2266-4.0143-2.3125-5.3632-3.0976l-.004-.0027-16.3398-9.43353c-.27837-.16993-.59051-.27699-.91458-.31367-.32407-.03669-.65225-.00213-.96156.10127-.03491.01253-.06771.02514-.10164.04068-.07879.02568-.1558.05651-.23055.09229-.31242.18674-.56873.45424-.74195.77434-.17323.32011-.25698.68099-.24242 1.04467v25.31385c-.00992.3388.07033.6741.23253.9718.1622.2976.40054.5468.69064.7222.06691.0327.13585.061.20639.0849.03857.0178.07534.0334.11514.0474.19095.0692.39205.1064.59514.1099.38999-.0043.77206-.1107 1.10808-.3086.51822-.3008 16.58458-9.5769 16.58458-9.5769l5.3607-3.095c.3315-.1661.6112-.4195.809-.733s.3062-.6751.3134-1.0457c-.0163-.357-.1285-.703-.3249-1.0015-.1964-.2986-.4696-.5387-.791-.6951zm-22.23303 12.248v-20.98285l10.58683 10.47875zm6.69063-2.8822 5.7914-5.7461 1.5327 1.5171c-1.6862.9736-4.5351 2.6187-7.3241 4.229zm5.7891-9.5-5.8638-5.80402 7.4048 4.27502zm3.929 3.8889-2.0338-2.0131 2.037-2.021c.9603.5577 2.4571 1.4257 3.4878 2.019z" fill="#051c2a"/></svg>