<svg fill="none" height="32" viewBox="0 0 32 32" width="32" xmlns="http://www.w3.org/2000/svg"><path d="m30.1364 13.3384c-.0556-.3074-.2173-.5857-.4571-.786-.2398-.2004-.5423-.3102-.8547-.3103h-12.5579c-.1751-.0001-.3485.0344-.5103.1014s-.3088.1652-.4326.289c-.1239.1238-.2221.2708-.2891.4326s-.1014.3352-.1014.5103v5.1576c0 .1751.0344.3485.1014.5103s.1652.3088.2891.4326c.1238.1238.2708.222.4326.289s.3352.1014.5103.1014h5.2832c-.3765.6354-.8925 1.1768-1.5091 1.5833-1.1269.7145-2.4403 1.0788-3.7741 1.0469-1.3834-.0158-2.7266-.4672-3.8387-1.2901s-1.9366-1.9754-2.3563-3.2936l-.0004-.0022c-.46703-1.3689-.46703-2.8539 0-4.2227l.0003-.0022c.42-1.318 1.2446-2.4701 2.3567-3.2928 1.1121-.82257 2.4552-1.27383 3.8384-1.28962.7685-.01764 1.533.11672 2.2495.39536s1.3708.69606 1.9255 1.22836c.252.2407.5881.3733.9366.3694.3484-.0039.6815-.1439.928-.3902l3.8242-3.82428c.1267-.12653.2266-.2773.2937-.4433.0672-.16601.1001-.34384.097-.52287-.0032-.17903-.0424-.35559-.1153-.51912-.073-.16353-.1781-.31069-.3092-.43267-2.6612-2.49506-6.1823-3.86725-9.83-3.83073-2.7201-.00805-5.3884.74402-7.70386 2.17139-2.3155 1.42736-4.18617 3.47326-5.40105 5.90698l-.00196.00236c-1.02996 2.04234-1.56434 4.29854-1.55983 6.58594.00325 2.2864.53723 4.5409 1.5599 6.5859l.00196.0024c1.21488 2.4337 3.08553 4.4796 5.40102 5.907 2.31552 1.4273 4.98372 2.1794 7.70382 2.1714 3.5804.0906 7.0601-1.1911 9.7262-3.5827l.001-.0007.001-.0011.0003-.0002.0001-.0001c1.4451-1.3902 2.5835-3.0673 3.3421-4.9235.7585-1.8562 1.1206-3.8506 1.0627-5.855.0006-.9942-.0876-1.9864-.2637-2.9649zm-13.8697-9.3385c2.4947-.02429 4.9306.75805 6.9446 2.23046l-1.9382 1.93754c-1.4696-1.01726-3.2192-1.55239-5.0064-1.53128-1.6317.00839-3.2317.45145-4.6353 1.28358-1.4036.83212-2.56012 2.02326-3.35048 3.4508l-1.42561-1.105-.78-.60489c1.07303-1.73621 2.57332-3.16828 4.35759-4.1594 1.7842-.99113 3.7928-1.50819 5.8338-1.50181zm-11.36078 15.8711c-.85242-2.5103-.85242-5.2319 0-7.7422l2.37631 1.8425c-.30382 1.3349-.30382 2.721 0 4.056zm11.36078 8.1289c-2.0411.0063-4.0497-.5108-5.8339-1.5019-1.78427-.9912-3.28457-2.4233-4.3576-4.1596l.50455-.3913 1.70117-1.3196c.79002 1.4279 1.94638 2.6194 3.35008 3.4518 1.4036.8324 3.0038 1.2756 4.6357 1.2839 1.5275.0179 3.0377-.325 4.4076-1.0011l2.2556 1.7511c-1.9838 1.2782-4.3039 1.9351-6.6632 1.8867zm8.7011-3.681-.244-.1893-1.8364-1.4257c.9629-1.0404 1.6101-2.3331 1.8662-3.7274.0358-.1924.0288-.3904-.0206-.5799-.0494-.1894-.1398-.3656-.265-.5162-.1252-.1505-.2819-.2716-.4592-.3547s-.3706-.1261-.5664-.126h-5.8424v-2.4909h10.0651c.0456.4609.0684.927.0684 1.3945.0779 2.9184-.9047 5.7662-2.7657 8.0156z" fill="#051c2a"/></svg>