<svg fill="none" height="32" viewBox="0 0 32 32" width="32" xmlns="http://www.w3.org/2000/svg"><path d="m9.89333 20.7199c-.24833.2498-.38772.5877-.38772.94 0 .3522.13939.6901.38772.94.12397.1249.27137.2241.43387.2918s.3368.1026.5128.1026.3503-.0349.5128-.1026c.1624-.0677.3099-.1669.4339-.2918.2483-.2499.3877-.5878.3877-.94 0-.3523-.1394-.6902-.3877-.94-.124-.125-.2715-.2242-.4339-.2919-.1625-.0677-.3368-.1025-.5128-.1025s-.3503.0348-.5128.1025-.3099.1669-.43387.2919zm0-11.32004c-.24833.24982-.38772.58775-.38772.94004 0 .3522.13939.6901.38772.94.12397.1249.27137.2241.43387.2918s.3368.1026.5128.1026.3503-.0349.5128-.1026c.1624-.0677.3099-.1669.4339-.2918.2483-.2499.3877-.5878.3877-.94 0-.35229-.1394-.69022-.3877-.94004-.124-.12497-.2715-.22416-.4339-.29186-.1625-.06769-.3368-.10254-.5128-.10254s-.3503.03485-.5128.10254c-.1625.0677-.3099.16689-.43387.29186zm6.59997 13.33334c-.2637 0-.5215.0782-.7407.2247-.2193.1465-.3902.3547-.4911.5984-.1009.2436-.1273.5117-.0759.7703.0515.2587.1784.4963.3649.6827.1865.1865.4241.3135.6827.3649.2586.0515.5267.0251.7704-.0758.2436-.101.4518-.2718.5984-.4911.1465-.2193.2247-.4771.2247-.7408.009-.1806-.0188-.3612-.0817-.5307-.063-.1696-.1598-.3245-.2845-.4555-.1247-.1309-.2748-.2352-.441-.3063-.1663-.0711-.3453-.1077-.5262-.1075zm-7.99997-8c-.26371 0-.52149.0782-.74076.2247s-.39016.3547-.49108.5984c-.10092.2436-.12732.5117-.07587.7703.05144.2587.17843.4963.3649.6827.18647.1865.42405.3135.68269.3649.25864.0515.52673.0251.77036-.0758.24364-.101.45188-.2718.59839-.4911.1465-.2193.2247-.4771.2247-.7408.00905-.1806-.01875-.3612-.0817-.5307-.06294-.1696-.15972-.3245-.28444-.4555-.12473-.1309-.27479-.2352-.44106-.3063-.16628-.0711-.34528-.1077-.52613-.1075zm7.99997-8.00001c-.2637 0-.5215.0782-.7407.22471-.2193.14651-.3902.35475-.4911.59838-.1009.24364-.1273.51173-.0759.77037.0515.25864.1784.49621.3649.68268s.4241.31346.6827.36491.5267.02504.7704-.07588c.2436-.10091.4518-.27181.5984-.49107.1465-.21927.2247-.47706.2247-.74076.009-.18063-.0188-.3612-.0817-.53075-.063-.16954-.1598-.3245-.2845-.45546s-.2748-.23518-.441-.30632c-.1663-.07113-.3453-.1077-.5262-.10747zm4.72 2.73334c-.1872.18615-.315.42371-.3671.68257-.0521.2589-.0262.5274.0745.7714.1007.2441.2716.4529.491.5997.2195.1469.4776.2253.7416.2253.2641 0 .5222-.0784.7416-.2253.2194-.1468.3903-.3556.491-.5997.1007-.244.1267-.5125.0746-.7714-.0521-.25886-.1799-.49642-.3672-.68257-.2409-.2574-.5739-.40891-.9262-.4214-.3523-.0125-.6952.11505-.9538.35473zm8.4 0c-1.219-2.43694-3.0928-4.48611-5.4112-5.91774-2.3184-1.43162-4.9898-2.18909-7.7146-2.18746-2.7249.00163-5.3953.76229-7.71206 2.19668-2.31671 1.4344-4.18804 3.48581-5.40414 5.9242-1.21609 2.43839-1.72888 5.16739-1.48084 7.88089.24803 2.7135 1.24707 5.3042 2.88509 7.4817s3.85026 3.8557 6.38865 4.8463c2.5384.9906 5.3025 1.2545 7.9825.7621.6739-.1268 1.3158-.3867 1.8881-.7644.5723-.3778 1.0636-.8658 1.4452-1.4356.4111-.6195.6948-1.3146.8344-2.0449.1397-.7302.1325-1.481-.0211-2.2084-.0839-.4396-.1286-.8859-.1333-1.3334.0058-1.292.387-2.5545 1.0971-3.634.7102-1.0794 1.7187-1.9292 2.9029-2.446.6385-.2859 1.2116-.6995 1.684-1.2155s.8341-1.1233 1.0627-1.7845c.2312-.6756.3243-1.3908.2739-2.1031s-.2433-1.4072-.5673-2.04354zm-2.2666 3.25337c-.1138.319-.2904.6121-.5195.8617-.229.2496-.5057.4508-.8139.5916-1.64.7341-3.0333 1.9261-4.0124 3.4327-.9792 1.5066-1.5027 3.2638-1.5076 5.0606.002.6268.0645 1.2519.1867 1.8667.0814.3757.0868.764.0158 1.1418s-.2169.7376-.4291 1.0582c-.1796.2805-.416.5204-.6938.7041-.2779.1837-.5911.3072-.9196.3626-.7122.1338-1.4353.2008-2.16.2-1.6077.0007-3.1993-.3216-4.6801-.9478-1.4808-.6263-2.8206-1.5438-3.93992-2.6979-1.11933-1.1542-1.99531-2.5215-2.57593-4.0207-.58062-1.4993-.85404-3.1-.80402-4.707.10348-2.9963 1.31867-5.8467 3.40884-7.99603 2.09017-2.14932 4.90563-3.44357 7.89783-3.63061h.68c2.2343.00056 4.4241.62491 6.3228 1.80275s3.4308 2.86238 4.4239 4.86389c.3056.6333.3487 1.3617.12 2.0267zm-10.8534 1.9466c-.2637 0-.5215.0782-.7407.2247-.2193.1465-.3902.3548-.4911.5984s-.1273.5117-.0759.7704c.0515.2586.1784.4962.3649.6827.1865.1864.4241.3134.6827.3649.2586.0514.5267.025.7704-.0759.2436-.1009.4518-.2718.5984-.4911.1465-.2192.2247-.477.2247-.7407 0-.3537-.1405-.6928-.3906-.9429-.25-.25-.5891-.3905-.9428-.3905z" fill="#051c2a"/></svg>