<svg fill="none" height="32" viewBox="0 0 32 32" width="32" xmlns="http://www.w3.org/2000/svg"><path d="m17.3333 21.3333h-13.33331c-.35362 0-.69276.1405-.94281.3906-.25005.25-.39052.5891-.39052.9428 0 .3536.14047.6927.39052.9428.25005.25.58919.3905.94281.3905h13.33331c.3536 0 .6928-.1405.9428-.3905.2501-.2501.3906-.5892.3906-.9428 0-.3537-.1405-.6928-.3906-.9428-.25-.2501-.5892-.3906-.9428-.3906zm-13.33331-10.6666h24.00001c.3536 0 .6928-.1405.9428-.3906.2501-.25.3905-.58914.3905-.94277 0-.35362-.1404-.69276-.3905-.94281-.25-.25004-.5892-.39052-.9428-.39052h-24.00001c-.35362 0-.69276.14048-.94281.39052-.25005.25005-.39052.58919-.39052.94281 0 .35363.14047.69277.39052.94277.25005.2501.58919.3906.94281.3906zm24.00001 4h-24.00001c-.35362 0-.69276.1404-.94281.3905-.25005.25-.39052.5892-.39052.9428s.14047.6928.39052.9428c.25005.2501.58919.3905.94281.3905h24.00001c.3536 0 .6928-.1404.9428-.3905.2501-.25.3905-.5892.3905-.9428s-.1404-.6928-.3905-.9428c-.25-.2501-.5892-.3905-.9428-.3905z" fill="#051c2a"/></svg>