<svg fill="none" height="32" viewBox="0 0 32 32" width="32" xmlns="http://www.w3.org/2000/svg"><path d="m21.3333 9.33315h-10.6666c-.3537 0-.6928.14047-.94285.39052-.25004.25005-.39052.58923-.39052.94283v10.6666c0 .3537.14048.6928.39052.9429.25005.25.58915.3905.94285.3905h10.6666c.3537 0 .6928-.1405.9428-.3905.2501-.2501.3906-.5892.3906-.9429v-10.6666c0-.3536-.1405-.69278-.3906-.94283-.25-.25005-.5891-.39052-.9428-.39052zm-1.3333 10.66665h-8v-8h8zm8 4.3733v-16.74662c.3606-.20058.6697-.4821.9031-.82242.2333-.34032.3845-.73015.4416-1.13881.0572-.40866.0187-.825-.1124-1.21626s-.3512-.74677-.6429-1.03855c-.2918-.29177-.6473-.51186-1.0386-.64293-.3912-.13107-.8076-.16956-1.2162-.11243-.4087.05712-.7985.20831-1.1388.44165-.3404.23334-.6219.54248-.8225.90308h-16.74664c-.20058-.3606-.4821-.66974-.82242-.90308s-.73015-.38453-1.13881-.44165c-.40866-.05713-.825-.01864-1.21626.11243s-.74677.35116-1.03854.64293c-.29178.29178-.51186.64729-.64294 1.03855-.13107.39126-.16956.8076-.11243 1.21626s.20831.79849.44165 1.13881c.23335.34032.54248.62184.90309.82242v16.74662c-.36061.2006-.66974.4822-.90309.8225-.23334.3403-.38452.7301-.44165 1.1388-.05713.4086-.01864.825.11243 1.2162.13108.3913.35116.7468.64294 1.0386.29177.2918.64728.5118 1.03854.6429s.8076.1696 1.21626.1125c.40866-.0572.79849-.2084 1.13881-.4417s.62184-.5425.82242-.9031h16.74664c.2006.3606.4821.6698.8225.9031.3403.2333.7301.3845 1.1388.4417.4086.0571.825.0186 1.2162-.1125.3913-.1311.7468-.3511 1.0386-.6429.2917-.2918.5118-.6473.6429-1.0386.1311-.3912.1696-.8076.1124-1.2162-.0571-.4087-.2083-.7985-.4416-1.1388-.2334-.3403-.5425-.6219-.9031-.8225zm-2.6667 0c-.4009.2273-.7327.5591-.96.96h-16.74664c-.22723-.4009-.55902-.7327-.96-.96v-16.74662c.40098-.22724.73277-.55903.96-.96h16.74664c.2273.40097.5591.73276.96.96z" fill="#051c2a"/></svg>